# xmcd
# 
# Track frame offsets:
#     150
#     21152
#     28809
#     49828
# 
# Disc length: 1115
# 
# Revision: 0
# Processed by: cddbd v1.5.2PL0 Copyright (c) Steve Scherf et al.
# Submitted via: fre:ac v1.0.27
# 
DISCID=2d045904
DTITLE=The Pilgrims - Setting Sail
DYEAR=1998
DGENRE=Sports
TTITLE0=Setting Sail
TTITLE1=Home Park crowd mix
TTITLE2=Settin Sail - player mix
TTITLE3=Home Park Crowd mega-mix
EXTD=
EXTT0=
EXTT1=
EXTT2=
EXTT3=
PLAYORDER=
